<?xml version="1.0" encoding="UTF-8" standalone="no"?>
<!-- Created with Inkscape (http://www.inkscape.org/) -->

<svg
   xmlns:dc="http://purl.org/dc/elements/1.1/"
   xmlns:cc="http://creativecommons.org/ns#"
   xmlns:rdf="http://www.w3.org/1999/02/22-rdf-syntax-ns#"
   xmlns:svg="http://www.w3.org/2000/svg"
   xmlns="http://www.w3.org/2000/svg"
   xmlns:sodipodi="http://sodipodi.sourceforge.net/DTD/sodipodi-0.dtd"
   xmlns:inkscape="http://www.inkscape.org/namespaces/inkscape"
   width="300"
   height="200"
   id="svg2"
   version="1.1"
   inkscape:version="0.47 r22583"
   sodipodi:docname="Math symbols.svg">
  <defs
     id="defs4" />
  <sodipodi:namedview
     id="base"
     pagecolor="#ffffff"
     bordercolor="#666666"
     borderopacity="1.0"
     inkscape:pageopacity="0.0"
     inkscape:pageshadow="2"
     inkscape:zoom="2.91"
     inkscape:cx="186.19684"
     inkscape:cy="109.46113"
     inkscape:document-units="px"
     inkscape:current-layer="layer1"
     showgrid="false"
     inkscape:window-width="1680"
     inkscape:window-height="996"
     inkscape:window-x="-4"
     inkscape:window-y="-3"
     inkscape:window-maximized="1" />
  <metadata
     id="metadata7">
    <rdf:RDF>
      <cc:Work
         rdf:about="">
        <dc:format>image/svg+xml</dc:format>
        <dc:type
           rdf:resource="http://purl.org/dc/dcmitype/StillImage" />
        <dc:title />
      </cc:Work>
    </rdf:RDF>
  </metadata>
  <g
     inkscape:label="Layer 1"
     inkscape:groupmode="layer"
     id="layer1"
     transform="translate(0,-852.36218)">
    <g
       transform="translate(-123.71133,734.49276)"
       style="font-size:40px;font-style:normal;font-weight:normal;fill:#999999;fill-opacity:1;stroke:none;font-family:Bitstream Vera Sans"
       id="flowRoot2927">
      <path
         d="m 299.97656,183.93032 c -1.45319,-1.68748 -3.32818,-4.49997 -5.625,-8.4375 -3.14068,5.62502 -6.0938,9.67971 -8.85937,12.16406 -3.4688,3.00002 -7.89848,4.50002 -13.28907,4.5 -6.32815,2e-5 -11.57815,-2.36717 -15.75,-7.10156 -4.40626,-4.96872 -6.60939,-11.55466 -6.60937,-19.75782 -2e-5,-7.87494 2.20311,-14.48431 6.60937,-19.82812 3.93748,-4.73431 9.23435,-7.10149 15.89063,-7.10156 3.42183,7e-5 6.39839,0.70319 8.92969,2.10937 2.95307,1.54694 5.43745,3.65632 7.45312,6.32813 1.87495,2.39068 3.74994,5.20318 5.625,8.4375 3.14056,-5.62494 6.09369,-9.67963 8.85938,-12.16407 3.46868,-2.99993 7.89836,-4.49993 13.28906,-4.5 6.32804,7e-5 11.57803,2.36726 15.75,7.10157 4.40615,4.9688 6.60927,11.55474 6.60937,19.75781 -1e-4,7.87503 -2.20322,14.4844 -6.60937,19.82812 -3.93759,4.7344 -9.23446,7.10158 -15.89063,7.10157 -3.42195,1e-5 -6.39851,-0.70311 -8.92968,-2.10938 -2.53132,-1.2656 -5.0157,-3.37498 -7.45313,-6.32812 m -28.54687,-0.98438 c 7.73433,3e-5 13.92182,-5.62497 18.5625,-16.875 -5.95318,-12.28119 -12.14067,-18.42181 -18.5625,-18.42187 -4.68753,6e-5 -8.22659,1.68756 -10.61719,5.0625 -2.57815,3.60942 -3.86721,7.80473 -3.86719,12.58593 -2e-5,5.25004 1.28904,9.49223 3.86719,12.72657 2.62497,3.28127 6.16403,4.9219 10.61719,4.92187 m 45.84375,-35.15625 c -6.98445,6e-5 -13.17195,5.62506 -18.5625,16.875 5.90618,12.28128 12.09367,18.4219 18.5625,18.42188 4.68741,2e-5 8.22647,-1.68748 10.61718,-5.0625 2.57803,-3.60934 3.8671,-7.80465 3.86719,-12.58594 -9e-5,-5.24995 -1.28916,-9.49214 -3.86719,-12.72656 -2.62509,-3.28119 -6.16414,-4.92182 -10.61718,-4.92188"
         style="font-size:144px;fill:#999999"
         id="path3132" />
    </g>
    <g
       style="font-size:40px;font-style:normal;font-weight:normal;fill:#000000;fill-opacity:1;stroke:none;font-family:Bitstream Vera Sans"
       id="flowRoot2903" />
    <g
       transform="translate(-7.9037802,929.68176)"
       style="font-size:40px;font-style:normal;font-weight:normal;fill:#666666;fill-opacity:1;stroke:none;font-family:Bitstream Vera Sans"
       id="flowRoot2911">
      <path
         d="m 220.13672,6.3999843 21.68359,0 0,4.6484377 -16.625,0 0,10.007812 c 0.80207,-0.273411 1.60416,-0.473931 2.40625,-0.601562 0.80207,-0.145807 1.60415,-0.218723 2.40625,-0.21875 4.55727,2.7e-5 8.16665,1.248723 10.82813,3.746094 2.66143,2.497416 3.99215,5.878923 3.99218,10.144531 -3e-5,4.393238 -1.36721,7.811203 -4.10156,10.253906 -2.7344,2.42448 -6.58986,3.636718 -11.5664,3.636719 -1.71356,-1e-6 -3.46356,-0.145834 -5.25,-0.4375 -1.76824,-0.291667 -3.60027,-0.729167 -5.4961,-1.3125 l 0,-5.550781 c 1.64062,0.893234 3.33593,1.558598 5.08594,1.996093 1.74999,0.437504 3.60025,0.656254 5.55078,0.65625 3.15363,4e-6 5.65102,-0.829422 7.49219,-2.488281 1.84112,-1.658846 2.76169,-3.910146 2.76172,-6.753906 -3e-5,-2.843734 -0.9206,-5.095034 -2.76172,-6.753906 -1.84117,-1.658833 -4.33856,-2.488259 -7.49219,-2.488282 -1.47657,2.3e-5 -2.95314,0.164085 -4.42969,0.492188 -1.45834,0.328146 -2.95313,0.838562 -4.48437,1.53125 l 0,-20.5078127"
         style="font-size:56px;fill:#666666"
         id="path3136" />
      <path
         d="m 257.07812,25.841391 11.59375,0 0,3.117187 -16.35156,0 0,-3.007812 c 0.61979,-0.565083 1.5039,-1.358051 2.65235,-2.378907 6.27082,-5.559866 9.40623,-9.196581 9.40625,-10.910156 -2e-5,-1.203089 -0.47398,-2.169234 -1.42188,-2.8984375 -0.94793,-0.7473576 -2.19662,-1.1210551 -3.74609,-1.1210937 -0.94793,3.86e-5 -1.97787,0.1641009 -3.08985,0.4921875 -1.11198,0.3099336 -2.32422,0.7838914 -3.63672,1.4218747 l 0,-3.363281 c 1.40365,-0.5103761 2.70703,-0.8931882 3.91016,-1.1484375 1.22135,-0.2551669 2.35155,-0.3827709 3.39063,-0.3828125 2.64321,4.16e-5 4.75779,0.6016035 6.34375,1.8046875 1.58592,1.2031636 2.37888,2.7890995 2.3789,4.7578125 -2e-5,2.533887 -3.01694,6.389352 -9.05078,11.566406 -1.02084,0.875023 -1.81381,1.558616 -2.37891,2.050782"
         style="font-size:56px;fill:#666666"
         id="path3138" />
    </g>
    <g
       transform="translate(37.457045,927.96356)"
       style="font-size:40px;font-style:normal;font-weight:normal;fill:#000000;fill-opacity:1;stroke:none;font-family:Bitstream Vera Sans"
       id="flowRoot2919">
      <path
         d="m 50.335937,113.17465 6.445313,0 0,-22.24609 -7.011719,1.40625 0,-3.59375 6.972656,-1.40625 3.945313,0 0,25.83984 6.445312,0 0,3.32032 -16.796875,0 0,-3.32032"
         style=""
         id="path3141" />
      <path
         d="m 83.558594,89.932466 c -2.031261,2.7e-5 -3.561207,1.00263 -4.589844,3.007813 -1.015632,1.992209 -1.523444,4.993508 -1.523438,9.003911 -6e-6,3.9974 0.507806,6.9987 1.523438,9.0039 1.028637,1.99219 2.558583,2.98829 4.589844,2.98828 2.044256,1e-5 3.574202,-0.99609 4.589843,-2.98828 1.028628,-2.0052 1.54295,-5.0065 1.542969,-9.0039 -1.9e-5,-4.010403 -0.514341,-7.011702 -1.542969,-9.003911 -1.015641,-2.005183 -2.545587,-3.007786 -4.589843,-3.007813 m 0,-3.125 c 3.268213,3e-5 5.7617,1.295602 7.480468,3.886719 1.731749,2.578148 2.597634,6.328145 2.597657,11.250005 -2.3e-5,4.90886 -0.865908,8.65886 -2.597657,11.25 -1.718768,2.57812 -4.212255,3.86718 -7.480468,3.86718 -3.268239,0 -5.768236,-1.28906 -7.5,-3.86718 -1.718754,-2.59114 -2.578128,-6.34114 -2.578125,-11.25 -3e-6,-4.92186 0.859371,-8.671857 2.578125,-11.250005 1.731764,-2.591117 4.231761,-3.886689 7.5,-3.886719"
         style=""
         id="path3143" />
      <path
         d="m 101.27344,113.17465 6.44531,0 0,-22.24609 -7.01172,1.40625 0,-3.59375 6.97266,-1.40625 3.94531,0 0,25.83984 6.44531,0 0,3.32032 -16.79687,0 0,-3.32032"
         style=""
         id="path3145" />
      <path
         d="m 138.75391,98.330904 25.03906,0 0,3.281246 -25.03906,0 0,-3.281246 m 0,7.968746 25.03906,0 0,3.32032 -25.03906,0 0,-3.32032"
         style=""
         id="path3147" />
      <path
         d="m 185.08203,87.33481 15.48828,0 0,3.320313 -11.875,0 0,7.148437 c 0.57291,-0.195293 1.14583,-0.338522 1.71875,-0.429687 0.57291,-0.104148 1.14583,-0.156231 1.71875,-0.15625 3.2552,1.9e-5 5.83332,0.891945 7.73438,2.675781 1.90102,1.783866 2.85154,4.199236 2.85156,7.246096 -2e-5,3.13802 -0.97658,5.57943 -2.92969,7.32422 -1.95314,1.73177 -4.70704,2.59765 -8.26172,2.59765 -1.22396,0 -2.47396,-0.10416 -3.75,-0.3125 -1.26302,-0.20833 -2.57162,-0.52083 -3.92578,-0.9375 l 0,-3.96484 c 1.17187,0.63802 2.38281,1.11328 3.63281,1.42578 1.25,0.3125 2.57161,0.46875 3.96485,0.46875 2.25259,0 4.03644,-0.59244 5.35156,-1.77734 1.31509,-1.18489 1.97264,-2.79296 1.97266,-4.82422 -2e-5,-2.03124 -0.65757,-3.63931 -1.97266,-4.82422 -1.31512,-1.18488 -3.09897,-1.77733 -5.35156,-1.77734 -1.0547,10e-6 -2.10938,0.1172 -3.16406,0.35156 -1.04168,0.23439 -2.10938,0.59897 -3.20313,1.09375 l 0,-14.64844"
         style=""
         id="path3149" />
    </g>
    <g
       style="font-size:40px;font-style:normal;font-weight:normal;fill:#000000;fill-opacity:1;stroke:none;font-family:Bitstream Vera Sans"
       id="text2939">
      <path
         d="m 241.99936,1049.3274 3.22266,0 0,-11.1231 -3.50586,0.7032 0,-1.7969 3.48632,-0.7031 1.97266,0 0,12.9199 3.22266,0 0,1.6601 -8.39844,0 0,-1.6601"
         style="font-size:20px"
         id="path3152" />
      <path
         d="m 258.61069,1037.7063 c -1.01563,0 -1.78061,0.5013 -2.29492,1.5039 -0.50782,0.9961 -0.76173,2.4968 -0.76172,4.502 -1e-5,1.9987 0.2539,3.4993 0.76172,4.5019 0.51431,0.9961 1.27929,1.4942 2.29492,1.4942 1.02213,0 1.7871,-0.4981 2.29492,-1.4942 0.51431,-1.0026 0.77147,-2.5032 0.77148,-4.5019 -1e-5,-2.0052 -0.25717,-3.5059 -0.77148,-4.502 -0.50782,-1.0026 -1.27279,-1.5039 -2.29492,-1.5039 m 0,-1.5625 c 1.6341,0 2.88085,0.6478 3.74023,1.9434 0.86588,1.289 1.29882,3.164 1.29883,5.625 -10e-6,2.4544 -0.43295,4.3294 -1.29883,5.625 -0.85938,1.289 -2.10613,1.9336 -3.74023,1.9336 -1.63412,0 -2.88412,-0.6446 -3.75,-1.9336 -0.85938,-1.2956 -1.28907,-3.1706 -1.28907,-5.625 0,-2.461 0.42969,-4.336 1.28907,-5.625 0.86588,-1.2956 2.11588,-1.9434 3.75,-1.9434"
         style="font-size:20px"
         id="path3154" />
    </g>
    <g
       style="font-size:40px;font-style:normal;font-weight:normal;fill:#000000;fill-opacity:1;stroke:none;font-family:Bitstream Vera Sans"
       id="text2943">
      <path
         d="m 161.91348,1047.2656 6.88477,0 0,1.6602 -9.25781,0 0,-1.6602 c 0.74869,-0.7747 1.76757,-1.8131 3.05664,-3.1152 1.29556,-1.3086 2.10936,-2.1517 2.4414,-2.5293 0.63151,-0.7096 1.07096,-1.3086 1.31836,-1.7969 0.2539,-0.4948 0.38085,-0.9798 0.38086,-1.4551 -1e-5,-0.7747 -0.27344,-1.4062 -0.82031,-1.8945 -0.54037,-0.4883 -1.24675,-0.7324 -2.11914,-0.7324 -0.6185,0 -1.27279,0.1074 -1.96289,0.3223 -0.6836,0.2148 -1.41602,0.5403 -2.19727,0.9765 l 0,-1.9922 c 0.79427,-0.319 1.53646,-0.5599 2.22656,-0.7226 0.6901,-0.1628 1.32161,-0.2442 1.89454,-0.2442 1.51041,0 2.71483,0.3776 3.61328,1.1328 0.89842,0.7553 1.34764,1.7644 1.34765,3.0274 -1e-5,0.599 -0.11394,1.1686 -0.34179,1.709 -0.22137,0.5338 -0.62827,1.1653 -1.22071,1.8945 -0.16277,0.1888 -0.68034,0.7357 -1.55273,1.6406 -0.8724,0.8985 -2.10287,2.1582 -3.69141,3.7793"
         style="font-size:20px"
         id="path3157" />
    </g>
    <g
       transform="translate(-34.707906,852.36218)"
       style="font-size:40px;font-style:normal;font-weight:normal;fill:#000000;fill-opacity:1;stroke:none;font-family:Bitstream Vera Sans"
       id="flowRoot2947">
      <path
         d="m 281.64062,44.854341 -8.92578,8.964844 8.92578,8.925781 -2.32421,2.363282 -8.96485,-8.964844 -8.96484,8.964844 -2.30469,-2.363282 8.90625,-8.925781 -8.90625,-8.964844 2.30469,-2.363281 8.96484,8.964844 8.96485,-8.964844 2.32421,2.363281"
         style=""
         id="path3160" />
    </g>
    <g
       style="font-size:40px;font-style:normal;font-weight:normal;fill:#000000;fill-opacity:1;stroke:none;font-family:Bitstream Vera Sans"
       id="text2955">
      <path
         d="m 262.46542,915.07397 4.80469,0 0,4.80469 -4.80469,0 0,-4.80469 m 0,14.45313 4.80469,0 0,4.78516 -4.80469,0 0,-4.78516 m -10.11718,-6.48438 25.03906,0 0,3.32032 -25.03906,0 0,-3.32032"
         style=""
         id="path3163" />
    </g>
    <g
       style="font-size:40px;font-style:normal;font-weight:normal;fill:#000000;fill-opacity:1;stroke:none;font-family:Bitstream Vera Sans"
       id="text2959">
      <path
         d="m 17.164972,899.76636 c -0.710941,1e-5 -1.246422,0.35092 -1.606445,1.05273 -0.355471,0.69727 -0.533205,1.74773 -0.533203,3.15137 -2e-6,1.39909 0.177732,2.44955 0.533203,3.15137 0.360023,0.69726 0.895504,1.0459 1.606445,1.04589 0.71549,10e-6 1.250971,-0.34863 1.606446,-1.04589 0.360019,-0.70182 0.540032,-1.75228 0.540039,-3.15137 -7e-6,-1.40364 -0.18002,-2.4541 -0.540039,-3.15137 -0.355475,-0.70181 -0.890956,-1.05272 -1.606446,-1.05273 m 0,-1.09375 c 1.143875,1e-5 2.016595,0.45346 2.618164,1.36035 0.606112,0.90235 0.909172,2.21485 0.90918,3.9375 -8e-6,1.7181 -0.303068,3.0306 -0.90918,3.9375 -0.601569,0.90234 -1.474289,1.35351 -2.618164,1.35351 -1.143883,0 -2.018882,-0.45117 -2.625,-1.35351 -0.601563,-0.9069 -0.902344,-2.2194 -0.902343,-3.9375 -1e-6,-1.72265 0.30078,-3.03515 0.902343,-3.9375 0.606118,-0.90689 1.481117,-1.36034 2.625,-1.36035"
         style="font-size:14px"
         id="path3166" />
      <path
         d="m 23.12591,907.3269 1.442383,0 0,1.73633 -1.442383,0 0,-1.73633"
         style="font-size:14px"
         id="path3168" />
      <path
         d="m 27.623957,908.85132 0,-1.25781 c 0.346352,0.16406 0.697263,0.28939 1.052734,0.37597 0.355466,0.0866 0.704098,0.12989 1.045898,0.12989 0.911454,0 1.606441,-0.30534 2.084961,-0.91602 0.483067,-0.61523 0.758783,-1.5472 0.827149,-2.7959 -0.264329,0.39193 -0.59929,0.69271 -1.004883,0.90234 -0.405604,0.20964 -0.854497,0.31446 -1.34668,0.31446 -1.020836,0 -1.829755,-0.30762 -2.426757,-0.92285 -0.59245,-0.61979 -0.888673,-1.46517 -0.888672,-2.53614 -1e-6,-1.04817 0.309894,-1.88898 0.929687,-2.52246 0.619789,-0.63345 1.444658,-0.95018 2.47461,-0.95019 1.180333,1e-5 2.080397,0.45346 2.700195,1.36035 0.624341,0.90235 0.936515,2.21485 0.936523,3.9375 -8e-6,1.60873 -0.38282,2.89388 -1.148437,3.85547 -0.761074,0.95703 -1.786464,1.43554 -3.076172,1.43554 -0.346358,0 -0.697269,-0.0342 -1.052734,-0.10253 -0.355471,-0.0684 -0.724612,-0.1709 -1.107422,-0.30762 m 2.748047,-4.32715 c 0.619786,0 1.109695,-0.21191 1.469726,-0.63574 0.364577,-0.42382 0.546869,-1.00488 0.546875,-1.74317 -6e-6,-0.73371 -0.182298,-1.31249 -0.546875,-1.73632 -0.360031,-0.42838 -0.84994,-0.64257 -1.469726,-0.64258 -0.619796,1e-5 -1.111983,0.2142 -1.476563,0.64258 -0.360028,0.42383 -0.540041,1.00261 -0.540039,1.73632 -2e-6,0.73829 0.180011,1.31935 0.540039,1.74317 0.36458,0.42383 0.856767,0.63574 1.476563,0.63574"
         style="font-size:14px"
         id="path3170" />
      <path
         d="m 36.538019,908.85132 0,-1.25781 c 0.346352,0.16406 0.697264,0.28939 1.052735,0.37597 0.355465,0.0866 0.704098,0.12989 1.045898,0.12989 0.911454,0 1.60644,-0.30534 2.084961,-0.91602 0.483067,-0.61523 0.758783,-1.5472 0.827148,-2.7959 -0.264329,0.39193 -0.599289,0.69271 -1.004882,0.90234 -0.405605,0.20964 -0.854497,0.31446 -1.34668,0.31446 -1.020837,0 -1.829755,-0.30762 -2.426758,-0.92285 -0.592449,-0.61979 -0.888673,-1.46517 -0.888672,-2.53614 -10e-7,-1.04817 0.309895,-1.88898 0.929688,-2.52246 0.619789,-0.63345 1.444658,-0.95018 2.474609,-0.95019 1.180333,1e-5 2.080397,0.45346 2.700195,1.36035 0.624342,0.90235 0.936516,2.21485 0.936524,3.9375 -8e-6,1.60873 -0.38282,2.89388 -1.148438,3.85547 -0.761073,0.95703 -1.786463,1.43554 -3.076172,1.43554 -0.346357,0 -0.697268,-0.0342 -1.052734,-0.10253 -0.355471,-0.0684 -0.724611,-0.1709 -1.107422,-0.30762 m 2.748047,-4.32715 c 0.619787,0 1.109695,-0.21191 1.469727,-0.63574 0.364577,-0.42382 0.546868,-1.00488 0.546875,-1.74317 -7e-6,-0.73371 -0.182298,-1.31249 -0.546875,-1.73632 -0.360032,-0.42838 -0.84994,-0.64257 -1.469727,-0.64258 -0.619795,1e-5 -1.111982,0.2142 -1.476562,0.64258 -0.360029,0.42383 -0.540042,1.00261 -0.54004,1.73632 -2e-6,0.73829 0.180011,1.31935 0.54004,1.74317 0.36458,0.42383 0.856767,0.63574 1.476562,0.63574"
         style="font-size:14px"
         id="path3172" />
      <path
         d="m 45.452082,908.85132 0,-1.25781 c 0.346352,0.16406 0.697263,0.28939 1.052734,0.37597 0.355466,0.0866 0.704098,0.12989 1.045898,0.12989 0.911454,0 1.606441,-0.30534 2.084961,-0.91602 0.483067,-0.61523 0.758783,-1.5472 0.827149,-2.7959 -0.264329,0.39193 -0.59929,0.69271 -1.004883,0.90234 -0.405604,0.20964 -0.854497,0.31446 -1.34668,0.31446 -1.020836,0 -1.829755,-0.30762 -2.426757,-0.92285 -0.59245,-0.61979 -0.888673,-1.46517 -0.888672,-2.53614 -10e-7,-1.04817 0.309894,-1.88898 0.929687,-2.52246 0.619789,-0.63345 1.444658,-0.95018 2.47461,-0.95019 1.180333,1e-5 2.080397,0.45346 2.700195,1.36035 0.624341,0.90235 0.936515,2.21485 0.936523,3.9375 -8e-6,1.60873 -0.38282,2.89388 -1.148437,3.85547 -0.761074,0.95703 -1.786464,1.43554 -3.076172,1.43554 -0.346358,0 -0.697269,-0.0342 -1.052734,-0.10253 -0.355471,-0.0684 -0.724612,-0.1709 -1.107422,-0.30762 m 2.748047,-4.32715 c 0.619786,0 1.109695,-0.21191 1.469726,-0.63574 0.364577,-0.42382 0.546869,-1.00488 0.546875,-1.74317 -6e-6,-0.73371 -0.182298,-1.31249 -0.546875,-1.73632 -0.360031,-0.42838 -0.84994,-0.64257 -1.469726,-0.64258 -0.619796,1e-5 -1.111983,0.2142 -1.476563,0.64258 -0.360028,0.42383 -0.540041,1.00261 -0.540039,1.73632 -2e-6,0.73829 0.180011,1.31935 0.540039,1.74317 0.36458,0.42383 0.856767,0.63574 1.476563,0.63574"
         style="font-size:14px"
         id="path3174" />
      <path
         d="m 59.103449,907.3269 1.449219,0 0,1.73633 -1.449219,0 0,-1.73633 m 4.655273,0 1.456055,0 0,1.73633 -1.456055,0 0,-1.73633 m -9.317383,0 1.456055,0 0,1.73633 -1.456055,0 0,-1.73633"
         style="font-size:14px"
         id="path3176" />
      <path
         d="m 72.768488,902.70581 8.763672,0 0,1.14844 -8.763672,0 0,-1.14844 m 0,2.78906 8.763672,0 0,1.16211 -8.763672,0 0,-1.16211"
         style="font-size:14px"
         id="path3178" />
      <path
         d="m 89.208918,907.90112 2.255859,0 0,-7.78613 -2.454102,0.49219 0,-1.25781 2.44043,-0.49219 1.380859,0 0,9.04394 2.25586,0 0,1.16211 -5.878906,0 0,-1.16211"
         style="font-size:14px"
         id="path3180" />
    </g>
    <g
       style="font-size:40px;font-style:normal;font-weight:normal;fill:#000000;fill-opacity:1;stroke:none;font-family:Bitstream Vera Sans"
       id="text2963">
      <path
         d="m 252.7627,863.02289 0,10.8789 10.8789,0 0,3.32032 -10.8789,0 0,10.8789 -3.28125,0 0,-10.8789 -10.87891,0 0,-3.32032 10.87891,0 0,-10.8789 3.28125,0"
         style=""
         id="path3183" />
    </g>
    <g
       style="font-size:40px;font-style:normal;font-weight:normal;fill:#000000;fill-opacity:1;stroke:none;font-family:Bitstream Vera Sans"
       id="text2967">
      <path
         d="m 263.68848,891.77118 25.03906,0 0,3.32031 -25.03906,0 0,-3.32031"
         style=""
         id="path3186" />
    </g>
    <g
       transform="translate(56.70103,785.35187)"
       style="font-size:40px;font-style:normal;font-weight:normal;fill:#000000;fill-opacity:1;stroke:none;font-family:Bitstream Vera Sans"
       id="flowRoot2895">
      <path
         d="m -22.273437,138.61997 20.9570308,0 0,3.59375 -2.7539063,0 0,13.4375 c -1.96e-5,0.9375 0.1562302,1.61458 0.46875,2.03125 0.3255004,0.40364 0.8463332,0.60547 1.5625,0.60547 0.1952906,0 0.4361758,-0.013 0.7226563,-0.0391 0.2864356,-0.0391 0.47523749,-0.0651 0.5664062,-0.0781 l 0,2.59765 c -0.4557517,0.16927 -0.9245012,0.29297 -1.40625,0.3711 -0.4817919,0.0781 -0.9635623,0.11718 -1.4453125,0.11719 -1.5625186,-1e-5 -2.6432466,-0.42318 -3.2421875,-1.26954 -0.5989746,-0.85937 -0.8984535,-2.43489 -0.8984375,-4.72656 l 0,-13.04687 -8.0664065,0 0,18.28125 -3.671875,0 0,-18.28125 -2.792968,0 0,-3.59375"
         style=""
         id="path3189" />
      <path
         d="m 42.355469,148.327 0,3.49609 c -1.367216,1.01563 -2.636746,1.75131 -3.808594,2.20703 -1.158878,0.44272 -2.369815,0.66407 -3.632813,0.66407 -1.432312,0 -3.098977,-0.38411 -5,-1.15235 -0.130225,-0.0521 -0.240902,-0.0977 -0.332031,-0.13672 -0.07814,-0.026 -0.21486,-0.0781 -0.410156,-0.15625 -2.018243,-0.79426 -3.639335,-1.1914 -4.863281,-1.1914 -1.145844,0 -2.278655,0.2474 -3.398438,0.74218 -1.119798,0.4948 -2.317714,1.28907 -3.59375,2.38282 l 0,-3.4961 c 1.367182,-1.01561 2.630202,-1.74478 3.789063,-2.1875 1.171866,-0.45572 2.389312,-0.68358 3.652343,-0.68359 1.432279,1e-5 3.105454,0.38412 5.019532,1.15234 0.143212,0.0651 0.247379,0.11069 0.3125,0.13672 0.07811,0.026 0.214826,0.0781 0.410156,0.15625 2.01821,0.79428 3.639302,1.19142 4.863281,1.19141 1.119769,1e-5 2.226538,-0.24088 3.320313,-0.72266 1.106744,-0.49478 2.330701,-1.29556 3.671875,-2.40234 m 0,-7.59766 0,3.47656 c -1.367216,1.02867 -2.636746,1.77085 -3.808594,2.22657 -1.158878,0.44272 -2.369815,0.66407 -3.632813,0.66406 -1.432312,1e-5 -3.098977,-0.3841 -5,-1.15234 -0.130225,-0.0521 -0.240902,-0.0976 -0.332031,-0.13672 -0.07814,-0.026 -0.21486,-0.0781 -0.410156,-0.15625 -2.018243,-0.79426 -3.639335,-1.19139 -4.863281,-1.19141 -1.145844,2e-5 -2.278655,0.24741 -3.398438,0.74219 -1.119798,0.4948 -2.317714,1.28256 -3.59375,2.36328 l 0,-3.47656 c 1.367182,-1.01561 2.630202,-1.74478 3.789063,-2.1875 1.171866,-0.45571 2.389312,-0.68358 3.652343,-0.6836 1.432279,2e-5 3.105454,0.38414 5.019532,1.15235 0.130191,0.0521 0.227847,0.0912 0.292968,0.11718 0.09113,0.0391 0.234358,0.0977 0.429688,0.17579 2.01821,0.79428 3.639302,1.19142 4.863281,1.1914 1.119769,2e-5 2.226538,-0.24087 3.320313,-0.72265 1.106744,-0.49478 2.330701,-1.29556 3.671875,-2.40235"
         style=""
         id="path3191" />
      <path
         d="m 75.558594,144.77231 c 1.888002,0.40366 3.359355,1.2435 4.414062,2.51953 1.067687,1.27606 1.601541,2.85157 1.601563,4.72656 -2.2e-5,2.87761 -0.989605,5.10417 -2.96875,6.67969 -1.979184,1.57552 -4.791681,2.36328 -8.4375,2.36328 -1.223968,0 -2.486988,-0.1237 -3.789063,-0.37109 -1.289068,-0.23438 -2.623702,-0.59245 -4.003906,-1.07422 l 0,-3.80859 c 1.093746,0.63802 2.291661,1.11979 3.59375,1.44531 1.302075,0.32552 2.662751,0.48828 4.082031,0.48828 2.473945,0 4.355454,-0.48828 5.644531,-1.46484 1.302066,-0.97656 1.953107,-2.39583 1.953125,-4.25782 -1.8e-5,-1.71874 -0.605486,-3.05988 -1.816406,-4.02343 -1.197932,-0.97655 -2.871107,-1.46483 -5.019531,-1.46485 l -3.398438,0 0,-3.24218 3.554688,0 c 1.940091,1e-5 3.424464,-0.3841 4.453125,-1.15235 1.028629,-0.78123 1.542951,-1.90102 1.542969,-3.35937 -1.8e-5,-1.49738 -0.533872,-2.64321 -1.601563,-3.4375 -1.054702,-0.80727 -2.571628,-1.21091 -4.550781,-1.21094 -1.08074,3e-5 -2.239593,0.11721 -3.476563,0.35156 -1.236985,0.2344 -2.597661,0.59899 -4.082031,1.09375 l 0,-3.51562 c 1.497391,-0.41664 2.897129,-0.72914 4.199219,-0.9375 1.315095,-0.20831 2.552073,-0.31247 3.710937,-0.3125 2.994777,3e-5 5.364567,0.68362 7.109375,2.05078 1.744771,1.35419 2.617166,3.19013 2.617188,5.50781 -2.2e-5,1.6146 -0.462261,2.98179 -1.386719,4.10156 -0.924498,1.10679 -2.239601,1.87502 -3.945312,2.30469"
         style=""
         id="path3193" />
      <path
         d="m 89.074219,155.53403 4.121093,0 0,4.96094 -4.121093,0 0,-4.96094"
         style=""
         id="path3195" />
      <path
         d="m 102.49219,157.17465 6.44531,0 0,-22.24609 -7.01172,1.40625 0,-3.59375 6.97266,-1.40625 3.94531,0 0,25.83984 6.44531,0 0,3.32032 -16.79687,0 0,-3.32032"
         style=""
         id="path3197" />
      <path
         d="m 138.11719,134.77231 -9.96094,15.56641 9.96094,0 0,-15.56641 m -1.03516,-3.4375 4.96094,0 0,19.00391 4.16015,0 0,3.28125 -4.16015,0 0,6.875 -3.92578,0 0,-6.875 -13.16406,0 0,-3.8086 12.1289,-18.47656"
         style=""
         id="path3199" />
    </g>
    <g
       style="font-size:40px;font-style:normal;font-weight:normal;fill:#000000;fill-opacity:1;stroke:none;font-family:Bitstream Vera Sans"
       id="text2979">
      <path
         d="m 152.11494,983.63574 c -1.04688,1.79689 -1.82422,3.57424 -2.33203,5.33203 -0.50781,1.75783 -0.76172,3.53908 -0.76172,5.34375 0,1.8047 0.25391,3.59376 0.76172,5.36719 0.51562,1.76559 1.29297,3.54299 2.33203,5.33199 l -1.875,0 c -1.17187,-1.8359 -2.05078,-3.6406 -2.63671,-5.41402 -0.57813,-1.77343 -0.86719,-3.53515 -0.86719,-5.28516 0,-1.74217 0.28906,-3.49608 0.86719,-5.26172 0.57812,-1.76561 1.45702,-3.57029 2.63671,-5.41406 l 1.875,0"
         style="font-size:24px"
         id="path3202" />
      <path
         d="m 157.0251,999.85449 3.86719,0 0,-13.34765 -4.20703,0.84375 0,-2.15625 4.18359,-0.84375 2.36719,0 0,15.5039 3.86719,0 0,1.99221 -10.07813,0 0,-1.99221"
         style="font-size:24px"
         id="path3204" />
      <path
         d="m 179.51338,993.32715 15.02344,0 0,1.99219 -15.02344,0 0,-1.99219"
         style="font-size:24px"
         id="path3206" />
      <path
         d="m 209.32588,999.85449 8.26172,0 0,1.99221 -11.10937,0 0,-1.99221 c 0.89843,-0.92968 2.12109,-2.17577 3.66796,-3.73828 1.55468,-1.5703 2.53125,-2.58202 2.92969,-3.03516 0.75781,-0.85155 1.28515,-1.5703 1.58203,-2.15625 0.30468,-0.59373 0.45702,-1.17576 0.45703,-1.74609 -1e-5,-0.92967 -0.32813,-1.68748 -0.98437,-2.27344 -0.64845,-0.58592 -1.4961,-0.87889 -2.54297,-0.8789 -0.74219,10e-6 -1.52735,0.12892 -2.35547,0.38672 -0.82031,0.25782 -1.69922,0.64845 -2.63672,1.17187 l 0,-2.39062 c 0.95313,-0.3828 1.84375,-0.67186 2.67188,-0.86719 0.82812,-0.1953 1.58593,-0.29295 2.27344,-0.29297 1.81249,2e-5 3.2578,0.45314 4.33593,1.35937 1.07812,0.90627 1.61718,2.11721 1.61719,3.63282 -1e-5,0.71876 -0.13673,1.40235 -0.41016,2.05078 -0.26563,0.64063 -0.75391,1.39845 -1.46484,2.27344 -0.19532,0.22657 -0.81642,0.88282 -1.86328,1.96875 -1.04688,1.07813 -2.52344,2.58984 -4.42969,4.53515"
         style="font-size:24px"
         id="path3208" />
      <path
         d="m 221.92354,983.63574 1.875,0 c 1.17187,1.84377 2.04687,3.64845 2.625,5.41406 0.58593,1.76564 0.8789,3.51955 0.8789,5.26172 0,1.75001 -0.29297,3.51173 -0.8789,5.28516 -0.57813,1.77342 -1.45313,3.57812 -2.625,5.41402 l -1.875,0 c 1.03906,-1.789 1.81249,-3.5664 2.32031,-5.33199 0.51562,-1.77343 0.77343,-3.56249 0.77344,-5.36719 -1e-5,-1.80467 -0.25782,-3.58592 -0.77344,-5.34375 -0.50782,-1.75779 -1.28125,-3.53514 -2.32031,-5.33203"
         style="font-size:24px"
         id="path3210" />
      <path
         d="m 248.05635,986.7998 0,6.52735 6.52734,0 0,1.99219 -6.52734,0 0,6.52736 -1.96875,0 0,-6.52736 -6.52734,0 0,-1.99219 6.52734,0 0,-6.52735 1.96875,0"
         style="font-size:24px"
         id="path3212" />
      <path
         d="m 274.50557,992.41309 c 1.1328,0.24219 2.01561,0.7461 2.64844,1.51171 0.64061,0.76564 0.96092,1.71095 0.96093,2.83594 -10e-6,1.72657 -0.59376,3.0625 -1.78125,4.00786 -1.18751,0.9453 -2.875,1.4179 -5.0625,1.4179 -0.73438,0 -1.49219,-0.074 -2.27343,-0.2226 -0.77344,-0.1407 -1.57422,-0.3555 -2.40235,-0.6446 l 0,-2.28512 c 0.65625,0.38281 1.375,0.67188 2.15625,0.86719 0.78125,0.19533 1.59765,0.29293 2.44922,0.29293 1.48437,0 2.61327,-0.29293 3.38672,-0.87887 0.78124,-0.58593 1.17186,-1.4375 1.17188,-2.55469 -2e-5,-1.03124 -0.3633,-1.83593 -1.08985,-2.41406 -0.71876,-0.58593 -1.72266,-0.8789 -3.01172,-0.87891 l -2.03906,0 0,-1.94531 2.13281,0 c 1.16406,10e-6 2.05468,-0.23046 2.67188,-0.69141 0.61718,-0.46873 0.92577,-1.14061 0.92578,-2.01562 -10e-6,-0.89842 -0.32032,-1.58592 -0.96094,-2.0625 -0.63282,-0.48436 -1.54297,-0.72655 -2.73047,-0.72656 -0.64844,10e-6 -1.34375,0.0703 -2.08593,0.21093 -0.7422,0.14065 -1.5586,0.35939 -2.44922,0.65625 l 0,-2.10937 c 0.89843,-0.24998 1.73827,-0.43748 2.51953,-0.5625 0.78906,-0.12498 1.53124,-0.18748 2.22656,-0.1875 1.79687,2e-5 3.21874,0.41017 4.26563,1.23047 1.04686,0.81251 1.5703,1.91408 1.57031,3.30469 -10e-6,0.96876 -0.27736,1.78907 -0.83203,2.46093 -0.5547,0.66408 -1.34376,1.12501 -2.36719,1.38282"
         style="font-size:24px"
         id="path3214" />
    </g>
    <g
       style="font-size:40px;font-style:normal;font-weight:normal;fill:#4d4d4d;fill-opacity:1;stroke:none;font-family:Bitstream Vera Sans"
       id="text2983">
      <path
         d="m 37.044833,947.49402 5.167969,0 0,2.625 -3.144531,0 -16.242188,43.91406 -1.804687,0 -8.722657,-24.14453 -3.4179683,1.23047 -0.6835938,-2.1875 7.7382811,-2.67969 7,19.38672 14.109375,-38.14453"
         style="font-size:56px"
         id="path3217" />
      <path
         d="m 52.931552,988.26355 19.277344,0 0,4.64844 -25.921875,0 0,-4.64844 c 2.096348,-2.16926 4.949209,-5.07681 8.558593,-8.72266 3.627588,-3.66404 5.906232,-6.02472 6.835938,-7.08203 1.768208,-1.98695 2.998675,-3.66404 3.691406,-5.03125 0.710914,-1.38539 1.066382,-2.74346 1.066406,-4.07422 -2.4e-5,-2.16924 -0.765648,-3.93746 -2.296875,-5.30468 -1.513041,-1.36716 -3.490903,-2.05075 -5.933593,-2.05079 -1.731785,4e-5 -3.563815,0.30082 -5.496094,0.90235 -1.914071,0.6016 -3.96485,1.51305 -6.152344,2.73437 l 0,-5.57812 c 2.223952,-0.89319 4.302075,-1.56767 6.234375,-2.02344 1.932279,-0.45569 3.700507,-0.68355 5.304688,-0.68359 4.229146,4e-5 7.601539,1.05733 10.117187,3.17187 2.515597,2.11462 3.773408,4.94014 3.773438,8.47656 -3e-5,1.67712 -0.31904,3.27217 -0.957032,4.78516 -0.619819,1.49482 -1.759141,3.26304 -3.417968,5.30469 -0.455754,0.52866 -1.904972,2.05991 -4.347657,4.59375 -2.442727,2.51564 -5.888036,6.04298 -10.335937,10.58203"
         style="font-size:56px"
         id="path3219" />
    </g>
    <g
       style="font-size:40px;font-style:normal;font-weight:normal;fill:#333333;fill-opacity:1;stroke:none;font-family:Bitstream Vera Sans"
       id="text2971">
      <path
         d="m 66.197792,880.27856 9.638672,0 0,2.32422 -12.960938,0 0,-2.32422 c 1.048174,-1.08463 2.474605,-2.5384 4.279297,-4.36132 1.813794,-1.83203 2.953116,-3.01236 3.417969,-3.54102 0.884104,-0.99348 1.499338,-1.83202 1.845703,-2.51562 0.355457,-0.6927 0.533191,-1.37173 0.533203,-2.03711 -1.2e-5,-1.08462 -0.382824,-1.96874 -1.148437,-2.65235 -0.756521,-0.68357 -1.745452,-1.02537 -2.966797,-1.02539 -0.865893,2e-5 -1.781907,0.15041 -2.748047,0.45117 -0.957036,0.3008 -1.982425,0.75653 -3.076172,1.36719 l 0,-2.78906 c 1.111976,-0.4466 2.151038,-0.78384 3.117188,-1.01172 0.966139,-0.22784 1.850253,-0.34178 2.652343,-0.3418 2.114574,2e-5 3.80077,0.52867 5.058594,1.58594 1.257798,1.05731 1.886704,2.47007 1.886719,4.23828 -1.5e-5,0.83856 -0.15952,1.63608 -0.478516,2.39258 -0.30991,0.74741 -0.879571,1.63152 -1.708984,2.65234 -0.227877,0.26434 -0.952486,1.02996 -2.173828,2.29688 -1.221364,1.25782 -2.944018,3.02149 -5.167969,5.29101"
         style="font-size:28px"
         id="path3222" />
      <path
         d="m 90.53373,868.82153 0,-2.48828 17.52734,6.35742 0,2.26954 -17.52734,6.35742 0,-2.48828 14.08203,-4.99024 -14.08203,-5.01758"
         style="font-size:28px"
         id="path3224" />
      <path
         d="m 122.90873,872.66333 17.52734,0 0,2.32422 -17.52734,0 0,-2.32422"
         style="font-size:28px"
         id="path3226" />
      <path
         d="m 154.7642,871.59692 c 1.3216,0.28257 2.35155,0.87046 3.08984,1.76368 0.74738,0.89323 1.12108,1.9961 1.1211,3.30859 -2e-5,2.01433 -0.69273,3.57292 -2.07813,4.67578 -1.38543,1.10287 -3.35418,1.6543 -5.90625,1.6543 -0.85678,0 -1.74089,-0.0866 -2.65234,-0.25977 -0.90235,-0.16406 -1.83659,-0.41471 -2.80274,-0.75195 l 0,-2.66602 c 0.76562,0.44662 1.60417,0.78386 2.51563,1.01172 0.91145,0.22787 1.86392,0.3418 2.85742,0.3418 1.73176,0 3.04882,-0.3418 3.95117,-1.02539 0.91145,-0.68359 1.36718,-1.67708 1.36719,-2.98047 -1e-5,-1.20312 -0.42384,-2.14192 -1.27149,-2.81641 -0.83855,-0.68358 -2.00977,-1.02538 -3.51367,-1.02539 l -2.3789,0 0,-2.26953 2.48828,0 c 1.35806,10e-6 2.39712,-0.26887 3.11719,-0.80664 0.72004,-0.54686 1.08006,-1.33071 1.08007,-2.35156 -1e-5,-1.04816 -0.37371,-1.85025 -1.12109,-2.40625 -0.73829,-0.56509 -1.80014,-0.84764 -3.18555,-0.84766 -0.75652,2e-5 -1.56771,0.082 -2.43359,0.2461 -0.86589,0.16408 -1.81836,0.41928 -2.85742,0.76562 l 0,-2.46094 c 1.04817,-0.29164 2.02799,-0.51039 2.93945,-0.65625 0.92057,-0.14581 1.78645,-0.21873 2.59766,-0.21875 2.09634,2e-5 3.75519,0.47854 4.97656,1.43555 1.22134,0.94794 1.83202,2.23309 1.83203,3.85547 -1e-5,1.13022 -0.32358,2.08725 -0.9707,2.87109 -0.64715,0.77475 -1.56772,1.31251 -2.76172,1.61328"
         style="font-size:28px"
         id="path3228" />
    </g>
    <g
       style="font-size:40px;font-style:normal;font-weight:normal;fill:#000000;fill-opacity:1;stroke:none;font-family:Bitstream Vera Sans"
       id="text2975">
      <path
         d="m 22.81658,1008.8228 5.420898,0 0,1.1621 -4.15625,0 0,2.502 c 0.200518,-0.068 0.401039,-0.1185 0.601563,-0.1504 0.200517,-0.037 0.401038,-0.055 0.601562,-0.055 1.139318,0 2.041661,0.3122 2.707032,0.9365 0.665357,0.6244 0.998039,1.4698 0.998046,2.5362 -7e-6,1.0983 -0.341804,1.9528 -1.02539,2.5634 -0.6836,0.6062 -1.647466,0.9092 -2.891602,0.9092 -0.428389,0 -0.865888,-0.036 -1.3125,-0.1094 -0.442059,-0.073 -0.900066,-0.1823 -1.374023,-0.3281 l 0,-1.3877 c 0.410155,0.2233 0.833982,0.3897 1.271484,0.499 0.437497,0.1094 0.900062,0.1641 1.387695,0.1641 0.788407,0 1.412756,-0.2074 1.873047,-0.6221 0.460281,-0.4147 0.690424,-0.9775 0.69043,-1.6884 -6e-6,-0.711 -0.230149,-1.2738 -0.69043,-1.6885 -0.460291,-0.4147 -1.08464,-0.6221 -1.873047,-0.6221 -0.369144,0 -0.738284,0.041 -1.107421,0.1231 -0.364586,0.082 -0.738284,0.2096 -1.121094,0.3828 l 0,-5.127"
         style="font-size:14px;fill:#000000"
         id="path3231" />
      <path
         d="m 34.56072,1008.4058 c -0.61068,1.0482 -1.06413,2.085 -1.360351,3.1104 -0.296227,1.0254 -0.444339,2.0644 -0.444336,3.1172 -3e-6,1.0527 0.148109,2.0963 0.444336,3.1308 0.300778,1.03 0.754228,2.0668 1.360351,3.1104 l -1.09375,0 c -0.683596,-1.071 -1.196291,-2.1237 -1.538085,-3.1582 -0.337241,-1.0345 -0.505861,-2.0622 -0.50586,-3.083 -10e-7,-1.0163 0.168619,-2.0394 0.50586,-3.0694 0.337237,-1.0299 0.849932,-2.0826 1.538085,-3.1582 l 1.09375,0"
         style="font-size:14px;fill:#000000"
         id="path3233" />
      <path
         d="m 38.375174,1017.8668 4.819336,0 0,1.1621 -6.480469,0 0,-1.1621 c 0.524087,-0.5424 1.237302,-1.2692 2.139648,-2.1807 0.906897,-0.916 1.476558,-1.5062 1.708985,-1.7705 0.442052,-0.4968 0.749668,-0.916 0.922851,-1.2578 0.177729,-0.3464 0.266596,-0.6859 0.266602,-1.0186 -6e-6,-0.5423 -0.191412,-0.9843 -0.574219,-1.3262 -0.37826,-0.3417 -0.872726,-0.5126 -1.483398,-0.5126 -0.432947,0 -0.890954,0.075 -1.374024,0.2255 -0.478518,0.1504 -0.991213,0.3783 -1.538086,0.6836 l 0,-1.3945 c 0.555988,-0.2233 1.075519,-0.3919 1.558594,-0.5059 0.48307,-0.1139 0.925127,-0.1708 1.326172,-0.1709 1.057286,10e-5 1.900385,0.2644 2.529297,0.793 0.628899,0.5287 0.943352,1.235 0.943359,2.1192 -7e-6,0.4192 -0.07976,0.818 -0.239258,1.1962 -0.154955,0.3737 -0.439785,0.8158 -0.854492,1.3262 -0.113939,0.1322 -0.476243,0.515 -1.086914,1.1485 -0.610682,0.6289 -1.472009,1.5107 -2.583984,2.6455"
         style="font-size:14px;fill:#000000"
         id="path3235" />
      <path
         d="m 55.499197,1010.2515 0,3.8076 3.807617,0 0,1.1622 -3.807617,0 0,3.8076 -1.148437,0 0,-3.8076 -3.807618,0 0,-1.1622 3.807618,0 0,-3.8076 1.148437,0"
         style="font-size:14px;fill:#000000"
         id="path3237" />
      <path
         d="m 67.933767,1017.8668 4.819336,0 0,1.1621 -6.480468,0 0,-1.1621 c 0.524086,-0.5424 1.237302,-1.2692 2.139648,-2.1807 0.906897,-0.916 1.476558,-1.5062 1.708984,-1.7705 0.442052,-0.4968 0.749669,-0.916 0.922852,-1.2578 0.177728,-0.3464 0.266595,-0.6859 0.266601,-1.0186 -6e-6,-0.5423 -0.191412,-0.9843 -0.574218,-1.3262 -0.378261,-0.3417 -0.872726,-0.5126 -1.483399,-0.5126 -0.432946,0 -0.890953,0.075 -1.374023,0.2255 -0.478518,0.1504 -0.991213,0.3783 -1.538086,0.6836 l 0,-1.3945 c 0.555988,-0.2233 1.075519,-0.3919 1.558594,-0.5059 0.483069,-0.1139 0.925126,-0.1708 1.326172,-0.1709 1.057286,10e-5 1.900384,0.2644 2.529296,0.793 0.628899,0.5287 0.943352,1.235 0.94336,2.1192 -8e-6,0.4192 -0.07976,0.818 -0.239258,1.1962 -0.154955,0.3737 -0.439785,0.8158 -0.854492,1.3262 -0.113939,0.1322 -0.476243,0.515 -1.086914,1.1485 -0.610682,0.6289 -1.472009,1.5107 -2.583985,2.6455"
         style="font-size:14px;fill:#000000"
         id="path3239" />
      <path
         d="m 75.2824,1008.4058 1.09375,0 c 0.683591,1.0756 1.194007,2.1283 1.53125,3.1582 0.341793,1.03 0.512691,2.0531 0.512695,3.0694 -4e-6,1.0208 -0.170902,2.0485 -0.512695,3.083 -0.337243,1.0345 -0.847659,2.0872 -1.53125,3.1582 l -1.09375,0 c 0.606118,-1.0436 1.05729,-2.0804 1.353516,-3.1104 0.300778,-1.0345 0.451169,-2.0781 0.451172,-3.1308 -3e-6,-1.0528 -0.150394,-2.0918 -0.451172,-3.1172 -0.296226,-1.0254 -0.747398,-2.0622 -1.353516,-3.1104"
         style="font-size:14px;fill:#000000"
         id="path3241" />
    </g>
    <g
       transform="translate(5.1546387,901.15942)"
       style="font-size:40px;font-style:normal;font-weight:normal;fill:#000000;fill-opacity:1;stroke:none;font-family:Bitstream Vera Sans"
       id="flowRoot2879">
      <path
         d="m 65.355469,73.243577 3.222656,0 0,-11.123047 -3.505859,0.703125 0,-1.796875 3.486328,-0.703125 1.972656,0 0,12.919922 3.222656,0 0,1.660156 -8.398437,0 0,-1.660156"
         style="font-size:20px"
         id="path3244" />
      <path
         d="m 91.175781,62.364671 0,5.439453 5.439453,0 0,1.660156 -5.439453,0 0,5.439453 -1.640625,0 0,-5.439453 -5.439453,0 0,-1.660156 5.439453,0 0,-5.439453 1.640625,0"
         style="font-size:20px"
         id="path3246" />
      <path
         d="m 108.93945,73.243577 6.88477,0 0,1.660156 -9.25781,0 0,-1.660156 c 0.74869,-0.774737 1.76757,-1.813148 3.05664,-3.115234 1.29556,-1.308588 2.10937,-2.151686 2.4414,-2.529297 0.63151,-0.709628 1.07096,-1.308585 1.31836,-1.796875 0.2539,-0.494782 0.38085,-0.979808 0.38086,-1.455078 -1e-5,-0.774729 -0.27344,-1.406238 -0.82031,-1.894532 -0.54037,-0.488268 -1.24675,-0.732408 -2.11914,-0.732422 -0.6185,1.4e-5 -1.27279,0.107435 -1.96289,0.322266 -0.6836,0.214856 -1.41602,0.540377 -2.19727,0.976563 l 0,-1.992188 c 0.79427,-0.318996 1.53646,-0.559881 2.22657,-0.722656 0.69009,-0.162746 1.3216,-0.244126 1.89453,-0.244141 1.51041,1.5e-5 2.71483,0.377619 3.61328,1.132813 0.89842,0.755221 1.34764,1.764335 1.34765,3.027343 -10e-6,0.598969 -0.11394,1.16863 -0.34179,1.708985 -0.22137,0.533862 -0.62827,1.165372 -1.22071,1.894531 -0.16277,0.188809 -0.68034,0.735684 -1.55273,1.640625 -0.8724,0.898442 -2.10287,2.158207 -3.69141,3.779297"
         style="font-size:20px"
         id="path3248" />
      <path
         d="m 126.3418,66.720139 2.06054,0 0,2.480469 -2.06054,0 0,-2.480469"
         style="font-size:20px"
         id="path3250" />
      <path
         d="m 145.05273,67.042405 c 0.94401,0.201831 1.67968,0.621752 2.20704,1.259766 0.53384,0.638027 0.80077,1.425786 0.80078,2.363281 -1e-5,1.438805 -0.49481,2.552085 -1.48438,3.339844 -0.98959,0.78776 -2.39584,1.18164 -4.21875,1.18164 -0.61198,0 -1.24349,-0.06185 -1.89453,-0.185547 -0.64453,-0.117187 -1.31185,-0.296223 -2.00195,-0.537109 l 0,-1.904297 c 0.54687,0.319013 1.14583,0.559898 1.79687,0.722656 0.65104,0.162762 1.33138,0.244142 2.04102,0.244141 1.23697,10e-7 2.17772,-0.244139 2.82226,-0.732422 0.65104,-0.488278 0.97656,-1.197913 0.97657,-2.128906 -1e-5,-0.85937 -0.30275,-1.529942 -0.90821,-2.011719 -0.59896,-0.488274 -1.43555,-0.732415 -2.50976,-0.732422 l -1.69922,0 0,-1.621093 1.77734,0 c 0.97005,8e-6 1.71223,-0.192049 2.22656,-0.576172 0.51432,-0.390616 0.77148,-0.950511 0.77149,-1.679688 -1e-5,-0.748686 -0.26694,-1.321602 -0.80078,-1.71875 -0.52735,-0.403633 -1.28582,-0.605455 -2.27539,-0.605469 -0.54037,1.4e-5 -1.1198,0.05861 -1.73828,0.175782 -0.6185,0.1172 -1.29883,0.299492 -2.04102,0.546875 l 0,-1.757813 c 0.7487,-0.208319 1.44856,-0.364569 2.09961,-0.46875 0.65755,-0.104152 1.27604,-0.156235 1.85547,-0.15625 1.49739,1.5e-5 2.68228,0.341812 3.55469,1.025391 0.87238,0.677096 1.30858,1.595064 1.30859,2.753906 -1e-5,0.807302 -0.23113,1.490895 -0.69336,2.050781 -0.46225,0.553394 -1.1198,0.937508 -1.97266,1.152344"
         style="font-size:20px"
         id="path3252" />
    </g>
  </g>
</svg>
